<svg width="60" height="72" viewBox="0 0 60 72" fill="none" xmlns="http://www.w3.org/2000/svg">
<path id="Vector" d="M19.5949 0.0105608L59.2277 39.9174C59.6855 40.4069 60 41.0981 60 41.8467C60 42.6816 59.6283 43.4302 59.0276 43.9197L31.9765 71.1578C31.712 71.4248 31.3978 71.6366 31.0519 71.7811C30.7059 71.9256 30.3351 72 29.9606 72C29.5861 72 29.2153 71.9256 28.8694 71.7811C28.5234 71.6366 28.2092 71.4248 27.9447 71.1578L0.836442 43.8621C0.571299 43.5957 0.360939 43.2793 0.21741 42.931C0.0738802 42.5827 0 42.2093 0 41.8322C0 41.455 0.0738802 41.0816 0.21741 40.7333C0.360939 40.385 0.571299 40.0686 0.836442 39.8022L17.5359 22.9583L19.3945 24.8297L19.7843 25.2161C22.4372 28.0025 26.0423 34.9403 20.5957 40.7812C20.0238 41.357 20.0238 42.2498 20.5957 42.8256L28.9455 51.262C29.5174 51.8378 30.4038 51.8378 30.9757 51.262L39.3255 42.8544C39.5829 42.595 39.783 42.2207 39.783 41.8179C39.783 41.4434 39.6115 41.0691 39.3541 40.8102L32.2052 33.6118L32.234 33.5831L19.6235 20.8853C13.9043 15.098 13.8468 5.79788 19.5949 0.0105608ZM36.2463 2.16732C39.1165 -0.722441 43.7695 -0.722441 46.6394 2.16732C49.5091 5.05709 49.5091 9.74231 46.6394 12.6321C43.7695 15.5218 39.1165 15.5218 36.2463 12.6321C33.3764 9.74231 33.3764 5.05709 36.2463 2.16732Z" fill="#F5F5F5"/>
</svg>
